<?xml version="1.0" encoding="utf-8"?>
<!-- Generator: Adobe Illustrator 26.3.1, SVG Export Plug-In . SVG Version: 6.00 Build 0)  -->
<svg version="1.1" xmlns="http://www.w3.org/2000/svg" xmlns:xlink="http://www.w3.org/1999/xlink" x="0px" y="0px"
	 viewBox="0 0 1900 1900" style="enable-background:new 0 0 1900 1900;" xml:space="preserve">
<style type="text/css">
	.st0{fill:#FFFFFF;}
	.st1{fill:#0D1A5D;}
	.st2{fill:#00ADFF;}
	.st3{fill:#A1D0EE;}
</style>
<g id="SHARK_LOGO">
	<g>
		<path class="st0" d="M762.86,1546.39c5.34-44.02,2.72-57.38-9.73-59.66c-51.98-9.52-134.26,160.41-134.44,160.67
			c0,0-4.5-172.3,95.58-297.84c43.47-54.53,102.82-67.22,130.93-71.46c14.58-17.99,45.02-56.77,73.78-101.03
			c66.83-102.82,67.44-145.25,64.59-158.72c-0.62-2.92-1.52-5.23-2.88-7.16c-31.57,7.63-126.77,36.38-312.29,136.46l-3.46,1.87
			l-3.79,1.05c-3.08,0.86-31.15,8.36-67.98,8.36c-50.48,0-93.68-14.46-124.93-41.81l-6.62-5.79l-3.09-8.24
			c-1.07-2.85-7.34-19.81-12.55-39.96c-29.42,4.66-74.33,10.04-124.94,10.04c-85.25,0-156.72-15.09-212.44-44.86l-29.39-15.7
			l14.24-30.13c2.15-4.55,54.2-113.02,181.06-241.09c74.1-74.8,158.68-141.01,251.4-196.78c111.18-66.88,234.41-118.84,366.5-154.56
			c14.78-30.14,51.85-97.97,115.41-166.53c49.32-53.2,104.51-95.94,164.05-127.03c74.84-39.08,156.5-59.65,242.72-61.14l99.86-1.73
			l-76.74,63.52c-1.44,1.24-41.46,35.95-69.6,91.97c-34.95,69.59-36.88,140.61-5.79,211.27c17.59,10,50.85,31.93,80.55,68.47
			c35.61,43.81,72.67,117.01,57.32,223.45c41.98,16.17,130.79,45.8,217.87,45.8h102.72l-81.35,62.72
			c-5.12,3.95-124.66,94.58-327.54,122.4c-17.28,26.59-58.49,87.65-119.31,163.31c-47.17,58.67-96.39,113.93-146.29,164.25
			c-57.06,57.53-115.21,108.75-173.1,152.49c1.67,23.29,0.16,61.46-16.71,110.56c-15.48,45.05-43.29,89.12-75.88,135.97
			c-84.92,122.1-215.41,189.59-291.9,216.59C588.69,1866.38,747.68,1671.39,762.86,1546.39z"/>
		<g>
			<path class="st1" d="M125.1,997.44c0,0,200.72-424.54,792.14-577.76c0,0,144.03-343.21,497.96-349.34
				c0,0-179.27,150.15-79.67,355.47c0,0,172.11,77.63,125.13,288.05c0,0,128.7,59.24,257.41,59.24c0,0-121.06,93.33-326.87,117.47
				c0,0-183.86,298.4-455.57,497c0,0,49.03,174.09-245.15,396.77c0,0,98.06-128.7,107.25-234.93
				c9.19-106.23-47.87-111.93-81.9-82.05l-7.74,1.61c0,0-26.3,28.35-40.09,52.86c0,0,19.41-88.87,72.52-149.13
				c53.12-60.27,122.57-61.29,122.57-61.29s239.63-282.21,125.48-337.51c0,0-91,10.34-336.79,142.94c0,0-99.21,27.56-160.5-26.06
				c0,0-15.13-40.29-17.36-68.44C473.93,1022.34,263,1071.11,125.1,997.44z"/>
			<path class="st0" d="M630.2,832.33c0,0,0,13.79,10.73,24.02c0,0-22.74,9.71-45.97-4.6c0,0-2.54,18.88,5.64,34.2
				c0,0-34.23,6.65-60.8-11.74c0,0-1.01,30.64,10.24,45.97c0,0-38.3,6.65-62.82-9.71c0,0,5.09,22.98,15.81,33.22
				c0,0-41.86,8.15-63.06-12.26c0,0,16.21-19.89,46.7-43.64c41.58-32.39,109.83-71.98,199.98-78.17
				C686.65,809.62,646.05,819.58,630.2,832.33z"/>
			<path class="st2" d="M1306.4,735.3c-7.2-0.4-14.34-0.58-21.36-0.61c-101.74-0.4-181.44,34.75-183.89,35.82
				c49.31-42.01,120.77-66.13,177.3-79.55c14.56-3.46,28.1-6.19,40.05-8.34c29.57-5.33,49.18-7.08,49.18-7.08l26.05,12.26
				c7.08-24.06,33.74-279.22-347.99-221.86c-31.75,4.78-66.34,11.74-104,21.14c-490.3,122.57-706.83,461.71-706.83,461.71
				c54.52,15.38,120.58,4.75,124.41,4.14h0.03c0.09-0.06,0.15-0.06,0.15-0.06c-0.03-0.03-0.03-0.03-0.03-0.03s0,0-0.03-0.03
				c-0.31-0.34-2.48-2.97-1.96-8.73c1.32-14.19,18.85-47.31,120-112.25c145.56-93.46,330.95-78.14,330.95-78.14
				c27.18,157.08-103.45,272.48-107.16,275.73c2.51-1.35,60.67-33.16,105.63-79.61c45.97-47.5,136.89-98.06,136.89-98.06
				c40.85-7.14,95,8.18,95,8.18c-35.76,1.01-74.07,25.53-74.07,25.53c209.91-18.39,217.57,125.64,217.57,125.64
				c50.56-133.3-90.4-177.73-90.4-177.73c67.81,9.32,130.85,10.42,186.25,7.26c131.86-7.45,220.24-38.92,225.63-40.88
				c0.09-0.03,0.18-0.06,0.28-0.09C1410.59,799.65,1306.4,735.3,1306.4,735.3z M993.29,515.52c-0.31,0.12-0.61,0.28-0.95,0.4
				c-0.67,0.31-1.47,0.64-2.36,1.01c-30.83,12.96-184.66,78.82-225.97,118.28c-37.35,35.67-51.08,57.89-54.91,64.96l-0.4,0.74
				c-0.37,0.67-0.61,1.16-0.74,1.44l-0.12,0.28l-41.89,18.88l27.58-24.51l21.97-39.84l-51.85,35.24l-15.57,35.24
				c0,0-55.56,24.33-163.61,77.28l114.82-91.07l10.73-32.18c0,0,163.61-114.88,385.34-167.01
				C995.37,514.66,994.67,514.94,993.29,515.52z"/>
			<path class="st0" d="M1090.89,963.09c0,0,63.33,51.07-109.3,284.99C981.59,1248.08,1211.42,1010.08,1090.89,963.09z"/>
			<path class="st2" d="M1266.58,890.57c0,0,13.79,2.55,24,3.06c0,0-23.49,57.2-50.56,86.31
				C1240.02,979.95,1265.05,925.55,1266.58,890.57z"/>
			<path class="st0" d="M865.26,1486.74v0.03c-3.74,21.94-11.64,47.28-24.61,75.84c0.61-2.76,22.89-100.7-33.74-128.64
				c-57.46-28.35-138.91,87.86-138.91,87.86s0.28-0.58,0.86-1.69c6.62-12.93,51.39-96.71,113.53-124.96
				C835.5,1371.03,879.11,1405.2,865.26,1486.74z"/>
			<path class="st0" d="M1227.77,356.36c-30.64-56.2-15.32-121.56-15.32-121.56c-87.85,59.23-135.35,156.53-135.35,156.53
				c-6.89,0-15.17,0.77-23.26,1.84c-17.41,2.24-33.95,5.82-33.95,5.82c70.88-169.15,241.26-237.64,246.56-239.73
				c0.03,0,0.06-0.03,0.09-0.03C1206.32,279.75,1227.77,356.36,1227.77,356.36z"/>
			<path class="st0" d="M1503.78,799.74c-5.39,1.96-93.77,33.43-225.63,40.88c-55.4,3.16-118.44,2.05-186.25-7.26
				c0,0,140.96,44.43,90.4,177.73c0,0-7.66-144.03-217.57-125.64c0,0,38.3-24.51,74.07-25.53c0,0-54.15-15.32-95-8.18
				c0,0-90.92,50.56-136.89,98.06c-43.54,45.02-99.5,76.27-105.23,79.4c-0.12,0.06-0.25,0.12-0.31,0.15
				c5.36-4.75,134.07-119.66,107.07-275.67c0,0-185.39-15.32-330.95,78.14c-101.15,64.93-118.68,98.06-120,112.25
				c-0.52,5.76,1.65,8.4,1.96,8.73c-1.47-0.7-45.44-20.5,58.04-103.61c108.33-87,471.39-240.55,725.73-262
				c186.01-15.69,182.64,61.5,175.28,95.42c-8.3,1.5-17.41,3.28-27.06,5.39c-4.23,0.89-8.55,1.9-12.99,2.94
				c-6.89,1.62-14,3.43-21.27,5.39c-9.5,2.57-19.31,5.45-29.2,8.64c-44.56,14.4-91.41,35.33-126.83,65.52
				c-0.4,0.28-0.8,0.55-1.16,0.86c-39.16,31.23,238.56,59.51,372.87,35.64C1484.29,804.98,1494.71,802.56,1503.78,799.74z"/>
			<polygon class="st0" points="715.5,657.16 663.65,692.4 648.09,727.64 674.63,713.8 693.53,696.99 			"/>
			<path class="st0" d="M989.98,516.93c-29.82,12.87-175.68,80.19-241.53,191.31l-40.6-5.61l0.12-0.28l0.74-1.44l0.4-0.74
				c3.83-7.08,17.56-29.3,54.91-64.96C805.32,595.75,959.15,529.89,989.98,516.93z"/>
			<path class="st3" d="M1503.78,799.74c-5.39,1.96-93.77,33.43-225.63,40.88c-55.4,3.16-118.44,2.05-186.25-7.26
				c0,0,140.96,44.43,90.4,177.73c0,0-7.66-144.03-217.57-125.64c0,0,38.3-24.51,74.07-25.53c0,0-54.15-15.32-95-8.18
				c0,0-90.92,50.56-136.89,98.06c-43.54,45.02-99.5,76.27-105.23,79.4c8.7-5.21,156.59-96.13,167.8-285.69
				c0,0,114.15-45.75,248.98-58.25c66.68-6.19,108.78,9.5,109.52,19.73c-44.56,14.4-91.41,35.33-126.83,65.52
				c-0.11,0.09-0.23,0.18-0.35,0.27c-0.33,0.23-0.65,0.47-0.97,0.7c-17.95,13.06-12.19,41.25,9.45,46.21
				c53.53,12.25,179.22,30.07,363.58-10.68C1482.97,804.77,1493.3,802.34,1503.78,799.74z"/>
			<path class="st3" d="M865.26,1486.74v0.03c-3.74,21.94-11.64,47.28-24.61,75.84c0.61-2.76,22.89-100.7-33.74-128.64
				c-57.46-28.35-138.91,87.86-138.91,87.86s0.28-0.58,0.86-1.69c6.13-11.61,44.77-80.47,109.21-101.49
				C848.53,1395.67,868.66,1445.59,865.26,1486.74z"/>
			<path class="st2" d="M1227.77,356.36c-30.64-56.2-15.32-121.56-15.32-121.56c-87.85,59.23-135.35,156.53-135.35,156.53
				c-6.89,0-15.17,0.77-23.26,1.84c15.9-41,69.78-151.1,212.61-233.9c0.03,0,0.06-0.03,0.09-0.03
				C1206.32,279.75,1227.77,356.36,1227.77,356.36z"/>
			<path class="st0" d="M1045.75,465.94c-0.12,0.03-0.25,0.06-0.37,0.09c-420.61,91.26-680.5,360.19-727.48,423.53
				c-46.98,63.31,41.55,63.25,41.55,63.25s-0.03,0.03-0.09,0.12h-0.03c-3.83,0.61-69.9,11.25-124.41-4.14
				c0,0,216.53-339.13,706.83-461.71C979.41,477.68,1014,470.72,1045.75,465.94z"/>
			<path class="st3" d="M1019.9,620.14c0,0,4.21,31.07-62.56,51.71c0,0,34.01-1.16,51.97-9.19c17.96-8.04,28.73-33.07,28.73-33.07
				l23.19-14.81c0,0,30.06,26.05-56.38,65.37c0,0,38.48,1.41,56.38-8.68c17.9-10.09,35.55-48.52,35.55-48.52l20.17-12
				c0,0,27.07,9.7-16.6,53.88c-12.04,12.19-32.43,23.11-65.57,32.42c0,0,59.44,13.03,83.7-11.99s34.98-55.67,34.98-55.67
				l-13.28-29.11l-87.33,6.13L1019.9,620.14z"/>
			<path class="st1" d="M935.01,625.68c0,0,124.47-39.58,252.4-40.56c0,0,11.49,39.36-68.95,100.14c0,0,39.45-75.46-1.53-74.31
				c0,0-7.46,38.3-55.72,60.52c0,0,36.19-50.56,0-56.69c0,0-14.89,37.16-51.91,47.88c0,0,28.47-24.9,10.6-42.52L935.01,625.68z"/>
			<path class="st0" d="M715.52,954.42c0,0-42.38,63-117.82,83.5c-12.32,3.31-25.53,5.52-39.56,6.13c0,0-5.18-8.83-3.06-19.55
				c0,0,10.14,4.23,20.1,4.04c0,0,2.45-29.2,12.9-43.24c0,0,24.27,17.1,49.31,11.49c0,0,2.02-22.98,16.85-45.97
				C654.23,950.83,686.4,973.81,715.52,954.42z"/>
			<path class="st3" d="M630.2,832.33c0,0,0,13.79,10.73,24.02c0,0-22.74,9.71-45.97-4.6c0,0-2.54,18.88,5.64,34.2
				c0,0-34.23,6.65-60.8-11.74c0,0-1.01,30.64,10.24,45.97c0,0-25.74-11.34-29.82-42.72c0,0-5.33-4.14-33.55,10.33
				c41.58-32.39,109.83-71.98,199.98-78.17C686.65,809.62,646.05,819.58,630.2,832.33z"/>
			<path class="st3" d="M715.52,954.42c0,0-42.38,63-117.82,83.5c-0.03-0.03-0.03-0.03-0.03-0.03
				c17.68-9.38,19.58-25.31,19.58-25.31c-17.34-5.64-29.17-27.27-29.17-27.27s24.27,17.1,49.31,11.49c0,0,2.02-22.98,16.85-45.97
				C654.23,950.83,686.4,973.81,715.52,954.42z"/>
		</g>
	</g>
</g>
<g id="EDITABLE_TEXT">
</g>
</svg>
